<?xml version="1.0" encoding="utf-8"?>
<!-- Generator: Adobe Illustrator 14.0.0, SVG Export Plug-In . SVG Version: 6.00 Build 43363)  -->
<!DOCTYPE svg PUBLIC "-//W3C//DTD SVG 1.1//EN" "http://www.w3.org/Graphics/SVG/1.1/DTD/svg11.dtd">
<svg version="1.1" xmlns="http://www.w3.org/2000/svg" xmlns:xlink="http://www.w3.org/1999/xlink" x="0px" y="0px" width="504px"
	 height="504px" viewBox="0 0 504 504" enable-background="new 0 0 504 504" xml:space="preserve">
<g id="Layer_2">
	<path d="M288.5,251.5c0,0,24-28.5,59.5-33.5c0,0,33-8.5,59.5,16.5c0,0,24,24,17,55.5c0,0-8,40.5-59.5,45c0,0,17.5-23-3.5-45
		c0,0-13.5-14-38-3.5c0,0-19.5,9-28.5,21.5c0,0,18,0.5,8.5,14.5c0,0,12.5,8.5,0.5,18.5c0,0,9.5,13-9.5,15c0,0,22,11,25-12
		c0,0,0.5-9.5-9-21.5c0,0,30.5-8,45,18.5c0,0,14.5,34-16.5,49c0,0-26,16.5-58-3c0,0,1.5,11.5,17,18c0,0-16,3-28-2c0,0-2.5,6-7,14.5
		c0,0-8,13-10,19.5c0,0-5.5-10-9.5-16.5c0,0-8-10.5-9-17c0,0-8.5,4.5-28,1.5c0,0,15.5-6,19-19c0,0-22,18-50,7.5c0,0-23.5-4-28.5-29
		c0,0-5.5-24.5,17.5-38.5c0,0,7-5,29-3c0,0-19,27.5,1.5,35.5c0,0,8,2.5,16-2c0,0-20-1.5-8.5-14.5c0,0-12.5-8.5,0-19
		c0,0-10.5-10.5,7.5-14c0,0-16-24-44-26c0,0-27.5-2-32,23.5c0,0-4,15.5,5,28.5c0,0-31-4-50.5-27c0,0-15.5-15-7.5-47.5
		c0,0,8-32.5,45-41.5c0,0,52-14.5,90.5,33.5c0,0-4.5-12.5-14.5-28.5c0,0-12-20-2.5-48.5c0,0,13.5-37,53-109.5c0,0,45.5,83,54,114
		c0,0,8.5,23.5-5,45.5C301.5,225.5,291,243,288.5,251.5z"/>
</g>
<g id="Layer_3">
	<path fill="#660000" d="M252.5,81c0,0-29,55.5-38.5,75.5c0,0-23,37.5-5,67.5c0,0,25.5,38,33,84.5l21,0.5c0,0,9-52,32.5-83.5
		c0,0,21-28.5-5.5-71C290,154.5,258.5,94,252.5,81z"/>
	<path fill="#660000" d="M270,308c0,0,7.5-65.5,75.5-84c0,0,57-12.5,73.5,46.5c0,0,9,42-42,56c0,0,10.5-40.5-27.5-49.5
		c0,0-31-7.5-61.5,31.5L270,308z"/>
	<path fill="#660000" d="M128,327.5c0,0-60.5-17-37.5-72c0,0,18.5-44,75-29.5c0,0,58.5,16,70,82l-19,1c0,0-27-41-63.5-31
		C153,278,120.5,285.5,128,327.5z"/>
	<path fill="#660000" d="M268.5,356H286c0,0,12.5,19,33,3.5c0,0,13.5-11,1.5-30.5c0,0,42-1.5,28,43.5c0,0-5.5,17.5-40,18
		C308.5,390.5,277.5,390,268.5,356z"/>
	<path fill="#660000" d="M234.857,356h-17.5c0,0-12.5,19-33,3.5c0,0-13.5-11-1.5-30.5c0,0-42-1.5-28,43.5c0,0,5.5,17.5,40,18
		C194.857,390.5,225.857,390,234.857,356z"/>
	<path fill="#660000" d="M244,356h17.334L262,366.667c0,0,7.499,4.834,10.499,14.501c0,0,3.833,14.333,8,19c0,0-9,0.667-15.333-11.5
		c0,0,0.499,12.668-4.001,20.501l-8.5,14.666l-9.333-14.665c0,0-4.5-5.001-3.5-20.667c0,0-3.501,12.165-16.001,11.832
		c0,0,7.333-8.5,9.667-19.5c0,0,1.167-7.333,9.333-14L244,356z"/>
	<path fill="#660000" d="M208.333,314.501L296,314.667c0,0,8.334,1.5,0.167,4.5l-87.833-0.166
		C208.333,319.001,200.5,316.835,208.333,314.501z"/>
	<path fill="#660000" d="M208.833,345.501l87.667,0.166c0,0,8.334,1.5,0.167,4.5l-87.833-0.166
		C208.833,350.001,201,347.835,208.833,345.501z"/>
	<path fill="#660000" d="M210.667,325.5h84.167c0,0,8-0.834,8,6.999c0,0,0.333,6.666-7.167,6.666l-84.833-0.166
		c0,0-7.833,0.332-7.833-6.834C203,332.165,202.667,325.501,210.667,325.5z"/>
</g>
</svg>
